<?xml version="1.0" encoding="utf-8"?>
<!-- Generator: Adobe Illustrator 17.0.0, SVG Export Plug-In . SVG Version: 6.00 Build 0)  -->
<!DOCTYPE svg PUBLIC "-//W3C//DTD SVG 1.1//EN" "http://www.w3.org/Graphics/SVG/1.1/DTD/svg11.dtd">
<svg version="1.1" id="Layer_1" xmlns="http://www.w3.org/2000/svg" xmlns:xlink="http://www.w3.org/1999/xlink" x="0px" y="0px"
	 width="20.5px" height="15.62px" viewBox="0 0 20.5 15.62" enable-background="new 0 0 20.5 15.62" xml:space="preserve">
<g>
	<path fill="#FFFFFF" d="M20,15.62c-0.09,0-0.18-0.024-0.259-0.072c-0.025-0.016-2.535-1.519-4.616-1.519s-4.591,1.503-4.616,1.519
		c-0.158,0.096-0.358,0.096-0.518,0c-0.025-0.016-2.536-1.519-4.616-1.519s-4.591,1.503-4.616,1.519
		c-0.153,0.094-0.346,0.097-0.504,0.008C0.097,15.467,0,15.301,0,15.12v-13c0-0.161,0.078-0.313,0.209-0.406
		C0.307,1.644,2.633,0,5.448,0c2.826,0,5.015,1.653,5.106,1.723c0.123,0.095,0.195,0.241,0.195,0.397v9.063
		c0,0.276-0.224,0.5-0.5,0.5s-0.5-0.224-0.5-0.5V2.381C9.187,2.008,7.478,1,5.448,1C3.403,1,1.598,2.014,1,2.389v11.89
		c0.979-0.493,2.748-1.25,4.375-1.25c1.965,0,4.136,1.104,4.875,1.515c0.739-0.411,2.91-1.515,4.875-1.515
		c1.627,0,3.396,0.757,4.375,1.25V2.352C19.045,1.985,17.669,1,16.042,1c-2.045,0-2.978,0.425-2.986,0.43
		c-0.251,0.117-0.548,0.011-0.665-0.237c-0.118-0.248-0.017-0.544,0.23-0.664C12.665,0.507,13.734,0,16.042,0
		c2.389,0,4.222,1.683,4.299,1.754C20.442,1.849,20.5,1.981,20.5,2.12v13c0,0.181-0.098,0.347-0.255,0.436
		C20.169,15.599,20.085,15.62,20,15.62z"/>
</g>
</svg>
