<?xml version="1.0" encoding="iso-8859-1"?>
<!-- Generator: Adobe Illustrator 16.0.0, SVG Export Plug-In . SVG Version: 6.00 Build 0)  -->
<!DOCTYPE svg PUBLIC "-//W3C//DTD SVG 1.1//EN" "http://www.w3.org/Graphics/SVG/1.1/DTD/svg11.dtd">
<svg version="1.1" id="Layer_1" xmlns="http://www.w3.org/2000/svg" xmlns:xlink="http://www.w3.org/1999/xlink" x="0px" y="0px"
	 width="122.742px" height="149.497px" viewBox="0 0 122.742 149.497" style="enable-background:new 0 0 122.742 149.497;"
	 xml:space="preserve">
<g>
	
		<path style="fill:none;stroke:#FFFFFF;stroke-width:6.0001;stroke-linecap:round;stroke-linejoin:round;stroke-miterlimit:2.6131;" d="
		M36.212,3h47.657c4.256,0,7.187,3.52,7.738,7.739l4.208,32.151c0.553,4.22-3.482,7.739-7.738,7.739H31.863
		c-4.255,0-8.309-3.521-7.739-7.739l4.349-32.151C29.044,6.521,31.956,3,36.212,3L36.212,3z M28.054,92.192l-13.493,53.032
		l5.755-22.622l80.704,0.036l6.432,23.858L92.368,90.354l6.736,0.027l-71.209,0.035C11.037,90.186,8.158,79.028,9.189,64.813
		L3,64.801l116.742,0.166"/>
</g>
</svg>
