<?xml version="1.0" encoding="utf-8"?>
<!-- Generator: Adobe Illustrator 16.0.0, SVG Export Plug-In . SVG Version: 6.00 Build 0)  -->
<!DOCTYPE svg PUBLIC "-//W3C//DTD SVG 1.1//EN" "http://www.w3.org/Graphics/SVG/1.1/DTD/svg11.dtd">
<svg version="1.1" id="Layer_1" xmlns="http://www.w3.org/2000/svg" xmlns:xlink="http://www.w3.org/1999/xlink" x="0px" y="0px"
	 width="24px" height="24px" viewBox="0 0 24 24" enable-background="new 0 0 24 24" xml:space="preserve">
<path fill="#FFFFFF" d="M17.997,18h-0.998c0-1.552,0.06-1.775-0.88-1.993c-1.438-0.332-2.797-0.646-3.293-1.729
	c-0.18-0.396-0.301-1.047,0.154-1.906c1.021-1.929,1.277-3.583,0.703-4.538c-0.672-1.115-2.708-1.12-3.386,0.017
	c-0.576,0.968-0.316,2.613,0.713,4.512c0.465,0.856,0.348,1.51,0.168,1.908c-0.49,1.09-1.836,1.4-3.262,1.729
	c-0.982,0.227-0.92,0.436-0.92,2.002H6.002L6,17.377c0-1.259,0.1-1.984,1.588-2.329c1.682-0.389,3.344-0.735,2.545-2.209
	C7.767,8.474,9.457,6,11.998,6c2.492,0,4.227,2.383,1.867,6.839c-0.775,1.464,0.824,1.812,2.545,2.209
	c1.49,0.345,1.589,1.072,1.589,2.333L17.997,18z M22.807,15.786c-1.289-0.298-2.488-0.56-1.908-1.657
	C22.669,10.787,21.369,9,19.499,9c-1.265,0-2.248,0.817-2.248,2.325c0,1.269,0.574,2.175,0.903,2.925h1.049
	c-0.17-0.75-1.467-2.562-0.766-3.736c0.412-0.692,1.703-0.693,2.113-0.012c0.381,0.631,0.182,1.812-0.533,3.161
	c-0.389,0.733-0.281,1.301-0.121,1.647c0.305,0.666,0.977,0.987,1.736,1.209c1.508,0.44,1.368,0.041,1.368,1.479h0.997L24,17.536
	C24,16.591,23.926,16.044,22.807,15.786L22.807,15.786z M0.002,18h0.997c0-1.438-0.139-1.039,1.368-1.48
	c0.761-0.221,1.433-0.541,1.737-1.207c0.159-0.349,0.267-0.916-0.121-1.648c-0.715-1.349-0.914-2.53-0.534-3.161
	c0.41-0.682,1.702-0.681,2.114,0.012c0.7,1.175-0.596,2.986-0.766,3.736h1.048c0.33-0.75,0.904-1.655,0.904-2.925
	C6.75,9.817,5.767,9,4.502,9c-1.87,0-3.17,1.787-1.4,5.129c0.581,1.1-0.619,1.359-1.908,1.657C0.074,16.044,0,16.591,0,17.537
	L0.002,18z"/>
</svg>
