<?xml version="1.0" encoding="iso-8859-1"?>
<!-- Generator: Adobe Illustrator 16.0.0, SVG Export Plug-In . SVG Version: 6.00 Build 0)  -->
<!DOCTYPE svg PUBLIC "-//W3C//DTD SVG 1.1//EN" "http://www.w3.org/Graphics/SVG/1.1/DTD/svg11.dtd">
<svg version="1.1" id="Layer_1" xmlns="http://www.w3.org/2000/svg" xmlns:xlink="http://www.w3.org/1999/xlink" x="0px" y="0px"
	 width="124.655px" height="73.199px" viewBox="0 0 124.655 73.199" style="enable-background:new 0 0 124.655 73.199;"
	 xml:space="preserve">
<path style="fill:#FFFFFF;" d="M62.201,73.153c-19.347,0-38.695-0.04-58.041,0.046c-2.753,0.013-4.17-1.36-4.16-4.34
	C0.068,47.731,0.047,26.603,0.053,5.476c0.001-0.722-0.025-1.445,0.005-2.165c0.09-2.08,1.331-3.285,3.377-3.284
	C42.226,0.03,81.016,0.034,119.806,0.052c1.213,0,2.481-0.334,3.56,0.688c0.956,0.905,1.291,1.943,1.29,3.218
	c-0.018,14.053-0.012,28.105-0.01,42.158c0,7.508,0,15.016,0.009,22.523c0.003,3.502-0.972,4.502-4.413,4.502
	c-19.346,0-38.693,0-58.04,0V73.153z M62.284,66.73c8.322,0,16.644-0.001,24.965,0c9.624,0.002,19.248,0.005,28.871,0.007
	c1.81,0.001,2.076-0.271,2.076-2.079c-0.002-17.321-0.002-34.644-0.004-51.966c0-0.769,0.028-1.541-0.019-2.308
	c-0.056-0.909-0.362-1.361-1.374-0.785c-4.119,2.342-8.275,4.618-12.395,6.962c-4.156,2.366-8.265,4.815-12.428,7.168
	c-5.962,3.37-11.959,6.679-17.934,10.028c-3.299,1.85-6.588,3.72-9.868,5.603c-1.191,0.683-2.36,0.732-3.553,0.053
	c-1.497-0.854-2.983-1.725-4.483-2.572c-4.625-2.612-9.254-5.215-13.882-7.822c-3.634-2.047-7.268-4.096-10.902-6.144
	c-5.13-2.89-10.259-5.783-15.391-8.67c-2.713-1.526-5.433-3.039-8.146-4.563c-0.884-0.496-1.244-0.148-1.271,0.762
	c-0.011,0.385-0.005,0.77-0.005,1.155c0.002,17.515,0.004,35.03,0.005,52.543c0,2.547,0.086,2.629,2.711,2.629
	c7.687-0.002,15.372-0.002,23.058-0.002C42.306,66.728,52.295,66.729,62.284,66.73 M17.42,6.512l-0.285,0.457
	c0.421,0.373,0.792,0.833,1.271,1.104c2.668,1.508,5.376,2.945,8.043,4.452c5.042,2.85,10.062,5.739,15.1,8.596
	c6.287,3.566,12.586,7.112,18.876,10.674c1.13,0.64,2.196,1.008,3.476,0.209c1.823-1.14,3.746-2.122,5.619-3.182
	c6.959-3.94,13.903-7.902,20.872-11.821c5.383-3.025,10.8-5.987,16.179-9.017c0.46-0.259,0.752-0.819,1.326-1.472H17.42z"/>
</svg>
