<?xml version="1.0" encoding="iso-8859-1"?>
<!-- Generator: Adobe Illustrator 16.0.0, SVG Export Plug-In . SVG Version: 6.00 Build 0)  -->
<!DOCTYPE svg PUBLIC "-//W3C//DTD SVG 1.1//EN" "http://www.w3.org/Graphics/SVG/1.1/DTD/svg11.dtd">
<svg version="1.1" id="Layer_1" xmlns="http://www.w3.org/2000/svg" xmlns:xlink="http://www.w3.org/1999/xlink" x="0px" y="0px"
	 width="122.564px" height="121.833px" viewBox="0 0 122.564 121.833" style="enable-background:new 0 0 122.564 121.833;"
	 xml:space="preserve">
<path style="fill:#FFFFFF;" d="M97.838,121.833c-0.476,0-0.952-0.112-1.39-0.34l-35.047-18.313l-35.293,18.307
	c-1.006,0.521-2.217,0.433-3.137-0.229c-0.918-0.662-1.385-1.785-1.208-2.903l6.313-39.885L0.878,51.25
	c-0.782-0.782-1.07-1.932-0.749-2.991c0.321-1.059,1.199-1.855,2.285-2.071l38.547-7.683l17.97-36.821
	C59.434,0.654,60.48,0,61.627,0h0.322c1.17,0,2.233,0.681,2.724,1.743l16.972,36.771l38.509,7.715
	c1.085,0.218,1.962,1.014,2.282,2.073c0.32,1.059,0.032,2.208-0.75,2.99L94.487,78.491l6.313,39.873
	c0.178,1.119-0.291,2.243-1.212,2.904C99.067,121.643,98.454,121.833,97.838,121.833 M9.086,50.976l24.315,24.333
	c0.679,0.68,0.991,1.641,0.841,2.589l-5.624,35.527l30.979-16.069c0.912-0.667,2.137-0.771,3.161-0.236l31.185,16.293l-5.62-35.494
	c-0.15-0.948,0.161-1.911,0.842-2.59l24.317-24.316l-34.511-6.915c-0.94-0.188-1.733-0.814-2.135-1.684L61.717,9.656L45.701,42.472
	c-0.411,0.842-1.191,1.443-2.11,1.626L9.086,50.976z"/>
</svg>
