<?xml version="1.0" encoding="iso-8859-1"?>
<!-- Generator: Adobe Illustrator 16.0.0, SVG Export Plug-In . SVG Version: 6.00 Build 0)  -->
<!DOCTYPE svg PUBLIC "-//W3C//DTD SVG 1.1//EN" "http://www.w3.org/Graphics/SVG/1.1/DTD/svg11.dtd">
<svg version="1.1" id="Layer_1" xmlns="http://www.w3.org/2000/svg" xmlns:xlink="http://www.w3.org/1999/xlink" x="0px" y="0px"
	 width="157.491px" height="149.194px" viewBox="0 0 157.491 149.194" style="enable-background:new 0 0 157.491 149.194;"
	 xml:space="preserve">
<g>
	
		<path style="fill:none;stroke:#FFFFFF;stroke-width:6.0001;stroke-linecap:round;stroke-linejoin:round;stroke-miterlimit:2.6131;" d="
		M12.759,3h131.974c5.367,0,9.759,4.392,9.759,9.759V112.1c0,5.367-4.392,9.759-9.759,9.759H12.759C7.392,121.858,3,117.467,3,112.1
		V12.759C3,7.392,7.392,3,12.759,3L12.759,3z M26.932,20.146h38.819c4.256,0,7.738,3.482,7.738,7.739v32.151
		c0,4.256-3.482,7.738-7.738,7.738H26.932c-4.256,0-7.739-3.482-7.739-7.738V27.885C19.193,23.628,22.676,20.146,26.932,20.146
		L26.932,20.146z M26.932,80.756h38.819c4.256,0,7.738,3.483,7.738,7.739v12.052c0,4.256-3.482,7.739-7.738,7.739H26.932
		c-4.256,0-7.739-3.482-7.739-7.739V88.495C19.193,84.238,22.676,80.756,26.932,80.756L26.932,80.756z M94.451,57.427h38.818
		c4.257,0,7.739,3.483,7.739,7.738v35.382c0,4.256-3.483,7.739-7.739,7.739H94.451c-4.256,0-7.738-3.482-7.738-7.739V65.165
		C86.713,60.909,90.195,57.427,94.451,57.427L94.451,57.427z M94.451,20.146h38.818c4.257,0,7.739,3.483,7.739,7.739v8.934
		c0,4.255-3.483,7.738-7.739,7.738H94.451c-4.256,0-7.738-3.482-7.738-7.738v-8.934C86.713,23.628,90.195,20.146,94.451,20.146
		L94.451,20.146z M35.506,146.194h88.362l-44.937-0.072l0.007-23.655"/>
</g>
</svg>
