<?xml version="1.0" encoding="utf-8"?>
<!-- Generator: Adobe Illustrator 17.0.0, SVG Export Plug-In . SVG Version: 6.00 Build 0)  -->
<!DOCTYPE svg PUBLIC "-//W3C//DTD SVG 1.1//EN" "http://www.w3.org/Graphics/SVG/1.1/DTD/svg11.dtd">
<svg version="1.1" id="Layer_1" xmlns="http://www.w3.org/2000/svg" xmlns:xlink="http://www.w3.org/1999/xlink" x="0px" y="0px"
	 width="179.999px" height="101.832px" viewBox="0 0 179.999 101.832" enable-background="new 0 0 179.999 101.832"
	 xml:space="preserve">
<path fill="#FBDD41" d="M25.244,96.557v-5.111l13.12,0.26c4.96,0,5.627-2.207,5.627-4.162c0-0.676,0.01-4.968,0.01-4.968h5.105
	c0,0,0.07,4.286,0.07,5.263c0,3.157-0.977,8.719-9.244,8.719H25.244z"/>
<path fill="#FBDD41" d="M19.83,85.523c-4.454,0-8.065,3.611-8.065,8.064c0,4.454,3.611,8.065,8.065,8.065s8.065-3.611,8.065-8.065
	C27.895,89.134,24.284,85.523,19.83,85.523 M19.83,96.499c-1.608,0-2.912-1.304-2.912-2.912c0-1.607,1.304-2.911,2.912-2.911
	c1.608,0,2.912,1.304,2.912,2.911C22.742,95.196,21.438,96.499,19.83,96.499"/>
<path fill="#F1F1F4" d="M19.839,39.868c9.243,0,13.827,5.411,13.827,5.411l-2.63,3.832c0,0-4.207-4.583-11.046-4.583
	c-8.267,0-14.73,6.161-14.73,15.179c0,8.868,6.538,15.182,14.88,15.182c7.666,0,12.098-5.336,12.098-5.336l2.331,3.982
	c0,0-5.111,5.938-14.73,5.938C8.642,79.472,0,71.431,0,59.707C0,48.059,8.718,39.868,19.839,39.868"/>
<rect x="43.892" y="40.769" fill="#F1F1F4" width="5.111" height="37.801"/>
<path fill="#F1F1F4" d="M61.327,40.77h5.035v5.636c0,1.652-0.15,3.006-0.15,3.006h0.15c1.353-3.456,6.162-9.544,15.105-9.544
	c9.318,0,12.625,5.336,12.625,14.654V78.57h-5.11V55.874c0-5.937-0.901-11.197-8.191-11.197c-6.463,0-12.024,4.434-13.752,10.671
	c-0.451,1.578-0.601,3.308-0.601,5.11V78.57h-5.111V40.77z"/>
<path fill="#F1F1F4" d="M123.103,39.868c9.243,0,13.827,5.411,13.827,5.411l-2.629,3.832c0,0-4.209-4.583-11.047-4.583
	c-8.267,0-14.73,6.161-14.73,15.179c0,8.868,6.539,15.182,14.88,15.182c7.666,0,12.099-5.336,12.099-5.336l2.33,3.982
	c0,0-5.111,5.938-14.73,5.938c-11.197,0-19.839-8.041-19.839-19.766C103.263,48.059,111.981,39.868,123.103,39.868"/>
<path fill="#F1F1F4" d="M147.154,22.424h5.111V46.18c0,1.728-0.151,3.081-0.151,3.081h0.151c1.428-3.607,6.463-9.393,15.029-9.393
	c9.318,0,12.625,5.335,12.625,14.654V78.57h-5.11V55.874c0-5.937-0.901-11.197-8.191-11.197c-6.463,0-12.024,4.434-13.752,10.747
	c-0.451,1.503-0.601,3.23-0.601,5.035v18.11h-5.111V22.424z"/>
<path fill="#4B9687" d="M140.132,96.736v-5.111l29.056,0.26c4.96,0,5.627-2.207,5.627-4.162c0-0.676,0.009-4.968,0.009-4.968h5.106
	c0,0,0.069,4.286,0.069,5.263c0,3.157-0.976,8.719-9.243,8.719H140.132z"/>
<path fill="#4B9687" d="M134.719,85.702c-4.454,0-8.065,3.61-8.065,8.064s3.611,8.065,8.065,8.065s8.065-3.611,8.065-8.065
	S139.173,85.702,134.719,85.702 M134.719,96.678c-1.608,0-2.912-1.304-2.912-2.912c0-1.607,1.304-2.912,2.912-2.912
	s2.912,1.305,2.912,2.912C137.631,95.374,136.327,96.678,134.719,96.678"/>
<path fill="#4F8CB5" d="M114.298,22.642v5.11l-42.319-0.26c-4.96,0-5.627,2.207-5.627,4.162c0,0.676-0.009,4.968-0.009,4.968h-5.106
	c0,0-0.069-4.286-0.069-5.263c0-3.157,0.976-8.718,9.243-8.718H114.298z"/>
<path fill="#4F8CB5" d="M117.225,34.228c4.454,0,8.065-3.61,8.065-8.064s-3.611-8.065-8.065-8.065c-4.454,0-8.065,3.611-8.065,8.065
	S112.771,34.228,117.225,34.228 M117.225,23.251c1.608,0,2.912,1.304,2.912,2.912c0,1.607-1.304,2.912-2.912,2.912
	c-1.608,0-2.912-1.305-2.912-2.912C114.313,24.555,115.617,23.251,117.225,23.251"/>
<path fill="#F37E20" d="M143.027,4.543c8.267,0,9.243,5.561,9.243,8.718c0,0.977-0.069,5.263-0.069,5.263h-5.106
	c0,0-0.009-4.292-0.009-4.968c0-1.955-0.667-4.162-5.627-4.162L99.14,9.654V4.543H143.027z"/>
<path fill="#F37E20" d="M104.278,8.065c0-4.454-3.611-8.065-8.065-8.065s-8.065,3.611-8.065,8.065s3.611,8.065,8.065,8.065
	S104.278,12.519,104.278,8.065 M99.125,8.065c0,1.608-1.304,2.912-2.912,2.912c-1.608,0-2.912-1.304-2.912-2.912
	c0-1.608,1.304-2.912,2.912-2.912C97.821,5.153,99.125,6.457,99.125,8.065"/>
<path fill="#C13D3B" d="M46.48,19.943c-4.454,0-8.065,3.611-8.065,8.065s3.611,8.065,8.065,8.065s8.065-3.611,8.065-8.065
	S50.935,19.943,46.48,19.943 M46.48,25.096c1.608,0,2.912,1.304,2.912,2.912s-1.304,2.912-2.912,2.912
	c-1.608,0-2.912-1.304-2.912-2.912S44.873,25.096,46.48,25.096"/>
</svg>
