<?xml version="1.0" encoding="iso-8859-1"?>
<!-- Generator: Adobe Illustrator 16.0.0, SVG Export Plug-In . SVG Version: 6.00 Build 0)  -->
<!DOCTYPE svg PUBLIC "-//W3C//DTD SVG 1.1//EN" "http://www.w3.org/Graphics/SVG/1.1/DTD/svg11.dtd">
<svg version="1.1" id="Layer_1" xmlns="http://www.w3.org/2000/svg" xmlns:xlink="http://www.w3.org/1999/xlink" x="0px" y="0px"
	 width="163.571px" height="96.38px" viewBox="0 0 163.571 96.38" style="enable-background:new 0 0 163.571 96.38;"
	 xml:space="preserve">
<path style="fill:#FFFFFF;" d="M122.595,92.898c-9.36,0-19.224-3.168-29.33-9.505c-14.731-9.236-24.674-21.828-25.09-22.359
	c-0.751-0.959-0.848-2.277-0.243-3.336c0.604-1.058,1.788-1.648,2.996-1.486L99,59.9l13.31-23.497
	c0.551-0.971,1.568-1.555,2.711-1.52l25.984,0.873l10.389-22.829c0.497-1.094,1.581-1.784,2.806-1.757
	c1.203,0.031,2.271,0.777,2.714,1.895c0.197,0.497,4.826,12.32,6.253,26.842c1.94,19.752-3.111,34.879-14.61,43.746
	C140.563,89.816,131.824,92.898,122.595,92.898 M78.146,63.212c4.198,4.345,10.658,10.322,18.425,15.172
	c17.965,11.218,34.223,11.391,48.32,0.519c18.133-13.983,12.604-43.005,8.771-56.476l-8.025,17.638
	c-0.503,1.105-1.606,1.784-2.831,1.756l-26.172-0.879l-13.411,23.676c-0.603,1.063-1.793,1.652-3.001,1.496L78.146,63.212z"/>
<path style="fill:#FFFFFF;" d="M46.104,96.38c-17.032,0-29.984-5.537-37.663-16.174c-11.899-16.482-11.206-35.59,2.006-55.255
	c9.697-14.432,22.596-23.972,23.141-24.37c0.984-0.723,2.304-0.774,3.342-0.138c1.039,0.637,1.589,1.839,1.393,3.042l-4.575,27.938
	l23.065,14.045c0.953,0.581,1.506,1.644,1.433,2.758l-1.692,25.945l22.49,11.103c1.079,0.533,1.735,1.66,1.667,2.861
	s-0.848,2.245-1.979,2.653c-0.503,0.181-12.467,4.433-27.026,5.401C49.792,96.317,47.924,96.38,46.104,96.38 M31.096,10.477
	c-4.475,4.059-10.654,10.327-15.747,17.937c-11.778,17.6-12.466,33.843-2.043,48.28c13.402,18.564,42.588,13.955,56.17,10.55
	L52.1,78.665c-1.087-0.536-1.744-1.675-1.665-2.885l1.704-26.131l-23.24-14.152c-1.044-0.636-1.598-1.841-1.4-3.047L31.096,10.477z"
	/>
</svg>
