<?xml version="1.0" encoding="iso-8859-1"?>
<!-- Generator: Adobe Illustrator 16.0.0, SVG Export Plug-In . SVG Version: 6.00 Build 0)  -->
<!DOCTYPE svg PUBLIC "-//W3C//DTD SVG 1.1//EN" "http://www.w3.org/Graphics/SVG/1.1/DTD/svg11.dtd">
<svg version="1.1" id="Layer_1" xmlns="http://www.w3.org/2000/svg" xmlns:xlink="http://www.w3.org/1999/xlink" x="0px" y="0px"
	 width="134.06px" height="135.32px" viewBox="0 0 134.06 135.32" style="enable-background:new 0 0 134.06 135.32;"
	 xml:space="preserve">
<path style="fill:#FFFFFF;" d="M28.573,135.32c-7.907,0.001-15.799-3.444-21.489-10.128c-11.421-13.416-7.795-31.302,2.115-40.18
	c6.09-5.455,14.881-7.396,26.131-5.771C47.315,67.25,76.184,38.384,82.078,32.512c-1.606-6.857-0.51-13.864,3.13-19.844
	c3.812-6.263,9.904-10.554,17.156-12.083c3.896-0.822,9.551-1.001,13.745,0.953c0.819,0.382,1.423,1.113,1.643,1.989
	c0.22,0.877,0.032,1.807-0.51,2.53c-0.214,0.284-0.265,0.352-8.066,8.137l-3.77,3.766c-1.249,1.25-1.372,1.985-0.496,3.424
	c1.079,1.13,7.047,6.994,8.308,8.092c1.141,0.572,1.785,0.435,2.746-0.521c2.541-2.528,5.075-5.063,7.608-7.598l3.635-3.637
	c0.133-0.131,0.265-0.257,0.441-0.423l0.303-0.287c0.757-0.719,1.833-0.997,2.839-0.727c1.009,0.268,1.805,1.04,2.104,2.04
	c0.439,1.467,0.687,2.794,0.87,3.898c0.001,0.005,0.002,0.009,0.002,0.014c1.335,8.241-2.319,15.804-2.356,15.876
	c-3.86,7.43-9.91,12.157-17.986,14.056c-0.062,0.015-5.291,1.195-11.75-0.105c-2.562,2.559-8.314,8.313-15.068,15.068
	c-11.117,11.119-24.948,24.953-31.648,31.64c3.041,12.515,0.073,22.645-8.828,30.109C40.97,133.206,34.766,135.32,28.573,135.32
	 M28.024,84.686c-6.29,0-11.258,1.604-14.821,4.796c-7.815,7.001-10.629,21.156-1.551,31.82c7.981,9.377,21.433,10.685,30.621,2.98
	c7.237-6.07,9.43-14.146,6.704-24.689c-0.454-1.76,0.038-3.373,1.463-4.791c6.586-6.573,20.648-20.639,31.922-31.914
	c7.538-7.54,13.829-13.833,15.806-15.805c1.562-1.558,3.177-1.335,4.036-1.045c5.292,1.224,9.847,0.287,9.893,0.278
	c6.34-1.491,10.929-5.081,13.985-10.964c-0.002,0.001,2.134-4.694,1.968-9.987l-0.233,0.233c-2.538,2.539-5.075,5.078-7.62,7.611
	c-2.893,2.876-6.463,3.385-10.054,1.428c-1.167-0.635-9.865-9.36-10.158-9.815c-2.538-3.954-2.13-7.793,1.178-11.104l3.776-3.771
	c1.236-1.233,2.658-2.652,3.939-3.934c-1.688-0.068-3.524,0.075-5.275,0.443c-5.615,1.184-10.327,4.497-13.27,9.331
	c-2.96,4.864-3.74,10.618-2.197,16.205c0.42,1.522,0.053,2.909-1.061,4.013c-3.396,3.369-35.8,35.771-48.021,47.998
	c-0.406,0.406-1.64,1.644-3.726,1.307C32.726,84.894,30.289,84.686,28.024,84.686 M113.013,29.368
	c0.015,0.008,0.028,0.016,0.041,0.023C113.039,29.382,113.025,29.375,113.013,29.368 M26.534,119.017
	c-1.013,0-2.049-0.4-2.767-1.106c-1.28-1.255-2.552-2.524-3.823-3.795c-0.844-0.842-1.688-1.685-2.535-2.524
	c-1.036-1.024-1.396-2.363-1.011-3.769c0.78-2.856,1.541-5.722,2.29-8.59c0.374-1.44,1.371-2.44,2.806-2.813
	c1.375-0.357,2.746-0.726,4.118-1.093c1.504-0.403,3.007-0.806,4.514-1.196c1.272-0.332,2.749,0.055,3.673,0.957
	c2.083,2.043,4.14,4.108,6.196,6.174l0.223,0.226c0.927,0.929,1.309,2.54,0.932,3.834c-0.232,0.876-0.432,1.636-0.623,2.373
	c-0.238,0.915-0.468,1.794-0.74,2.812l-0.164,0.613c-0.253,0.951-0.506,1.903-0.801,2.842c-0.389,1.238-1.424,2.26-2.636,2.6
	c-2.894,0.806-5.836,1.594-8.75,2.345C27.144,118.979,26.84,119.017,26.534,119.017 M27.967,113.626
	c0.001,0.002,0.003,0.002,0.005,0.004C27.97,113.628,27.968,113.628,27.967,113.626 M22.513,108.204
	c0.559,0.555,1.114,1.11,1.671,1.666c0.977,0.975,1.952,1.949,2.934,2.92c2.1-0.548,4.207-1.113,6.293-1.688
	c0.144-0.508,0.278-1.016,0.413-1.525l0.168-0.627c0.27-1.002,0.494-1.869,0.729-2.77c0.114-0.438,0.23-0.883,0.354-1.356
	c-1.526-1.534-3.055-3.065-4.595-4.585c-1.106,0.29-2.21,0.586-3.313,0.883c-0.992,0.266-1.985,0.531-2.979,0.793
	C23.638,104.015,23.08,106.11,22.513,108.204 M35.964,105.718l0.003,0.002L35.964,105.718z M35.445,103.468
	c-0.036,0.101-0.071,0.209-0.099,0.326c0.006-0.021,0.012-0.043,0.018-0.066C35.388,103.64,35.414,103.554,35.445,103.468
	 M35.447,103.464c-0.001,0.002-0.001,0.002-0.002,0.004C35.446,103.466,35.446,103.466,35.447,103.464"/>
</svg>
