<?xml version="1.0" encoding="iso-8859-1"?>
<!-- Generator: Adobe Illustrator 16.0.0, SVG Export Plug-In . SVG Version: 6.00 Build 0)  -->
<!DOCTYPE svg PUBLIC "-//W3C//DTD SVG 1.1//EN" "http://www.w3.org/Graphics/SVG/1.1/DTD/svg11.dtd">
<svg version="1.1" id="Layer_1" xmlns="http://www.w3.org/2000/svg" xmlns:xlink="http://www.w3.org/1999/xlink" x="0px" y="0px"
	 width="186.235px" height="172.082px" viewBox="0 0 186.235 172.082" style="enable-background:new 0 0 186.235 172.082;"
	 xml:space="preserve">
<g>
	
		<path style="fill:none;stroke:#FFFFFF;stroke-width:6.0001;stroke-linecap:round;stroke-linejoin:round;stroke-miterlimit:2.6131;" d="
		M3.227,68.978c0.312-6.62,0.909-10.586,20.177-8.654L35.7,72.677l11.975-11.842l49.309-0.088
		c10.775,3.198,11.288,14.377,0.256,16.862l-41.389-0.766l-1.789,80.706c0.828,14.934-15.564,15.521-17.373-0.256v-31.142
		l-0.095,31.223c1.181,13.615-19.82,18.269-18.812-2.125l1.022-76.107l-0.456,32.42C16.608,118.061,3.116,118.997,3,109.87
		L3.227,68.978L3.227,68.978z M60.588,30.469c7.62-8.378,16.808-9.884,27.678-4.012c8.624-39.164,70.378-24.921,67.301,10.686
		c37.508-0.435,36.269,56.929,0,55.159l-90.93,0.669"/>
	<path style="fill:none;stroke:#FFFFFF;stroke-width:6.0001;stroke-miterlimit:2.6131;" d="M35.844,19.501
		c9.311,0,16.859,7.548,16.859,16.859s-7.548,16.859-16.859,16.859S18.985,45.67,18.985,36.36S26.534,19.501,35.844,19.501
		L35.844,19.501z"/>
</g>
</svg>
